<svg width="397" height="138" viewBox="0 0 397 138" fill="none" xmlns="http://www.w3.org/2000/svg">
<path fill-rule="evenodd" clip-rule="evenodd" d="M323.807 15.9546C325.398 14.3636 325.398 11.7842 323.807 10.1932C322.216 8.60226 319.636 8.60226 318.045 10.1932L295 33.2386L271.955 10.1932C270.364 8.60226 267.784 8.60226 266.193 10.1932C264.602 11.7842 264.602 14.3636 266.193 15.9546C266.193 15.9546 280.239 30.0002 289.239 39C280.239 47.9998 266.193 62.0454 266.193 62.0454C264.602 63.6364 264.602 66.2158 266.193 67.8068C267.784 69.3977 270.364 69.3977 271.955 67.8068L295 44.7614L318.045 67.8068C319.636 69.3977 322.216 69.3977 323.807 67.8068C325.398 66.2158 325.398 63.6364 323.807 62.0454L300.761 39L323.807 15.9546Z" fill="black"/>
<path fill-rule="evenodd" clip-rule="evenodd" d="M21.3479 137.601C21.3479 113.344 21.3479 88.9952 21.3479 64.7385C21.3479 58.928 21.1606 53.0252 21.6288 47.2147C22.4714 34.3946 30.711 24.0648 42.2275 20.8367C54.9613 17.332 69.0996 21.5746 76.0283 31.7199C83.3315 42.4187 83.706 54.0398 78.0881 65.4764C72.8448 76.1751 63.1072 80.141 51.5906 80.3255C44.4747 80.4177 37.3587 80.3255 29.9619 80.3255C29.9619 86.9661 29.9619 93.0533 29.9619 99.8784C40.074 99.8784 49.718 100.155 59.362 99.7862C64.1372 99.6017 69.0996 98.7716 73.4066 96.927C92.1328 89.0874 100.653 74.0538 102.713 54.7776C104.867 34.948 94.6608 15.9485 76.8709 6.3565C58.9875 -3.32772 35.6734 -1.85203 20.4116 10.138C5.80517 21.4823 6.15754e-05 36.7926 6.15754e-05 54.6854C6.15754e-05 82.3546 6.15754e-05 109.932 6.15754e-05 137.601H21.3479Z" fill="black"/>
<path d="M135.558 54.6724C132.406 56.6312 129.666 59.1965 127.494 62.2224V53.6272H112.36L112.36 138H127.494L127.494 95.2354C127.494 94.0345 127.715 78.8679 137.111 71.3513C143.896 66.0251 153.634 66.1586 153.634 66.1586V50.8363C153.634 50.8363 142.046 50.4916 135.558 54.6724Z" fill="black"/>
<path d="M206.258 49.4917C182.466 49.4917 163.189 69.2617 163.189 93.6462C163.189 118.031 182.466 137.801 206.258 137.801C230.051 137.801 249.317 118.031 249.317 93.6462C249.317 69.2617 230.04 49.4917 206.258 49.4917ZM206.622 122.879C191.917 122.879 179.987 109.903 179.987 93.902C179.987 77.9014 191.917 64.9141 206.622 64.9141C221.327 64.9141 233.246 77.8458 233.246 93.902C233.246 109.958 221.327 122.901 206.622 122.901V122.879Z" fill="black"/>
<path fill-rule="evenodd" clip-rule="evenodd" d="M367 63C380.255 63 391 52.2548 391 39C391 25.7452 380.255 15 367 15C353.745 15 343 25.7452 343 39C343 52.2548 353.745 63 367 63ZM367 69C383.569 69 397 55.5685 397 39C397 22.4315 383.569 9 367 9C350.431 9 337 22.4315 337 39C337 55.5685 350.431 69 367 69Z" fill="black"/>
</svg>
