<svg width="408" height="139" viewBox="0 0 408 139" fill="none" xmlns="http://www.w3.org/2000/svg">
<path d="M146.198 54.843C143.046 56.8018 140.306 59.3671 138.135 62.393V53.7978H123V88.5H138.84C139.822 83.1654 142.164 75.9913 147.751 71.5219C154.537 66.1958 164.274 66.3292 164.274 66.3292V51.0069C164.274 51.0069 152.686 50.6622 146.198 54.843Z" fill="#0575E6"/>
<path d="M123 138.171H138.135V95.4061C138.135 94.9192 138.171 92.1371 138.84 88.5H123L123 138.171Z" fill="#FFCC00"/>
<path fill-rule="evenodd" clip-rule="evenodd" d="M174.35 88.5C177.057 66.7856 195.146 50 217.07 50C238.983 50 257.071 66.7856 259.778 88.5H243.506C241.004 75.2959 230.283 65.4224 217.433 65.4224C204.589 65.4224 193.862 75.3303 191.353 88.5H174.35Z" fill="#0575E6"/>
<path d="M174 94.1545C174 118.539 193.277 138.309 217.07 138.309C240.863 138.309 260.128 118.539 260.128 94.1545C260.128 92.2388 260.009 90.3515 259.778 88.5H243.506C243.867 90.4072 244.057 92.3838 244.057 94.4103C244.057 110.466 232.138 123.409 217.433 123.409V123.387C202.728 123.387 190.798 110.411 190.798 94.4103C190.798 92.3852 190.989 90.4083 191.353 88.5H174.35C174.119 90.3515 174 92.2388 174 94.1545Z" fill="#FFCC00"/>
<path fill-rule="evenodd" clip-rule="evenodd" d="M334.807 14.9546C336.398 13.3636 336.398 10.7842 334.807 9.19322C333.216 7.60226 330.636 7.60226 329.045 9.19322L306 32.2386L282.955 9.19322C281.364 7.60226 278.784 7.60226 277.193 9.19322C275.602 10.7842 275.602 13.3636 277.193 14.9546C277.193 14.9546 291.239 29.0002 300.239 38C291.239 46.9998 277.193 61.0454 277.193 61.0454C275.602 62.6364 275.602 65.2158 277.193 66.8068C278.784 68.3977 281.364 68.3977 282.955 66.8068L306 43.7614L329.045 66.8068C330.636 68.3977 333.216 68.3977 334.807 66.8068C336.398 65.2158 336.398 62.6364 334.807 61.0454L311.761 38L334.807 14.9546Z" fill="#FFCC00"/>
<path d="M29.9617 88.4132L29.9619 99.8784C33.0256 99.8784 36.0461 99.9038 39.0368 99.9289L39.0391 99.9289C45.9189 99.9868 52.6406 100.043 59.362 99.7862C64.1372 99.6017 69.0996 98.7716 73.4066 96.927C75.1622 96.1921 76.8281 95.3939 78.4073 94.5349C79.197 94.1054 79.9649 93.6607 80.7116 93.2011C80.9287 93.0675 81.144 92.9325 81.3575 92.7964C81.8837 92.461 82.3989 92.1179 82.9035 91.7673C84.4171 90.7157 85.8343 89.5966 87.1589 88.4132H29.9617Z" fill="#FFCC00"/>
<path d="M21.3479 137.601V64.7385C21.3479 58.928 21.1606 53.0252 21.6288 47.2147C22.4714 34.3946 30.711 24.0648 42.2275 20.8367C54.9613 17.332 69.0996 21.5746 76.0283 31.7199C83.3315 42.4187 83.706 54.0398 78.0881 65.4764C72.8448 76.1751 63.1072 80.141 51.5906 80.3255C44.4747 80.4177 37.3587 80.3255 29.9619 80.3255L29.9617 88.4132H87.1589C85.8343 89.5966 84.4171 90.7157 82.9035 91.7673C95.1057 83.2899 101.04 70.433 102.713 54.7776C104.867 34.948 94.6608 15.9485 76.8709 6.3565C58.9875 -3.32772 35.6734 -1.85203 20.4116 10.138C5.82834 21.4643 0.0184501 36.7441 5.3943e-05 54.6002C4.3431e-05 54.6104 8.62807e-05 54.6206 7.95503e-05 54.6308V88.4132H21.3476L21.3479 137.601Z" fill="#0575E6"/>
<path fill-rule="evenodd" clip-rule="evenodd" d="M5.3943e-05 54.6002L7.95503e-05 54.4815V54.6308L5.3943e-05 54.6002ZM82.9035 91.7673C82.3989 92.1179 81.8837 92.461 81.3575 92.7964C81.144 92.9325 80.9287 93.0675 80.7116 93.2011C79.9649 93.6607 79.197 94.1054 78.4073 94.5349C76.8281 95.3939 75.1622 96.1921 73.4066 96.927C69.0996 98.7716 64.1372 99.6017 59.362 99.7862C52.6406 100.043 45.9189 99.9868 39.0391 99.9289L39.0368 99.9289C36.0461 99.9038 33.0256 99.8784 29.9619 99.8784L29.9617 88.4132H87.1589C85.8343 89.5966 84.4171 90.7157 82.9035 91.7673Z" fill="#FFCC00"/>
<path d="M6.15754e-05 54.6854V137.601H21.3479L21.3476 88.4132H7.95503e-05V54.6308L6.15754e-05 54.6854Z" fill="#FFCC00"/>
<path fill-rule="evenodd" clip-rule="evenodd" d="M378 62C391.255 62 402 51.2548 402 38C402 24.7452 391.255 14 378 14C364.745 14 354 24.7452 354 38C354 51.2548 364.745 62 378 62ZM378 68C394.569 68 408 54.5685 408 38C408 21.4315 394.569 8 378 8C361.431 8 348 21.4315 348 38C348 54.5685 361.431 68 378 68Z" fill="#0575E6"/>
</svg>
