<svg width="348" height="75" viewBox="0 0 348 75" fill="none" xmlns="http://www.w3.org/2000/svg">
<path d="M24.3849 0C10.9167 0 0 11.0823 0 24.7543L0 75H9.9666L9.9666 44.741C9.9666 44.741 9.89351 30.0531 9.9666 24.6614C10.0729 16.0292 16.4715 10.2125 24.2521 10.2125C26.1071 10.2186 27.9428 10.5898 29.6543 11.3048C31.3658 12.0199 32.9196 13.0649 34.227 14.3801C35.5344 15.6953 36.5698 17.2549 37.2741 18.97C37.9783 20.6851 38.3377 22.522 38.3315 24.3758C38.3315 24.4688 38.3315 24.5684 38.3315 24.6614C38.1256 31.9655 34.1655 38.6853 24.2587 38.6853C19.6475 38.6853 15.4549 38.579 12.9632 38.4993L12.9632 47.5166C17.2621 47.6029 20.1325 47.4568 24.2587 47.6959C38.1256 48.5126 48.75 39.5817 48.75 24.7344C48.7765 11.0823 37.8598 0 24.3849 0Z" fill="black"/>
<path d="M69.5986 24.8145C67.7849 25.9942 66.2084 27.5392 64.9589 29.3616V24.185H56.2499L56.2499 75H64.9589L64.9589 49.2443C64.9589 48.521 65.0857 39.3867 70.4923 34.8597C74.3968 31.6519 79.9999 31.7323 79.9999 31.7323V22.5042C79.9999 22.5042 73.3319 22.2966 69.5986 24.8145Z" fill="black"/>
<path d="M218.349 24.8145C216.535 25.9942 214.959 27.5392 213.709 29.3616V24.185H205V75H213.709V49.2443C213.709 48.521 213.836 39.3867 219.243 34.8597C223.147 31.6519 228.75 31.7323 228.75 31.7323V22.5042C228.75 22.5042 222.082 22.2966 218.349 24.8145Z" fill="#868686"/>
<path d="M113.753 22.5C99.2502 22.5 87.4999 34.2533 87.4999 48.75C87.4999 63.2467 99.2502 75 113.753 75C128.256 75 140 63.2467 140 48.75C140 34.2533 128.25 22.5 113.753 22.5ZM113.975 66.1288C105.011 66.1288 97.7394 58.4144 97.7394 48.902C97.7394 39.3896 105.011 31.6687 113.975 31.6687C122.939 31.6687 130.204 39.3566 130.204 48.902C130.204 58.4475 122.939 66.142 113.975 66.142V66.1288Z" fill="black"/>
<path d="M197.494 25.3718C197 11.2815 186.37 0 172.497 0C158.288 0 147.5 11.7995 147.5 26.3679V75H157.367V26.5272C157.367 16.9655 163.945 9.22311 172.707 9.22311C181.469 9.22311 187.291 16.9721 187.6 26.5272V37.8818L160.63 37.8818V47.842L187.633 47.842V74.9934L197.5 74.9934V26.4011V25.3718H197.494Z" fill="#868686"/>
<path d="M278.49 50.5247C277.128 60.0689 271.373 66.2357 262.055 66.1365C253.307 66.044 246.223 58.4231 246.223 48.9119C246.223 39.4007 253.314 31.4758 262.055 31.6873C266.16 31.7152 270.093 33.353 273.023 36.2546L248.266 50.0422L252.482 57.7622L286.675 38.9381C280.127 27.8009 272.787 22.5 261.846 22.5C247.709 22.5 236.25 34.2519 236.25 48.7533C236.25 63.2548 247.709 75 261.846 75C275.518 75 285.706 67.009 287.5 51.0468L278.49 50.5247Z" fill="#868686"/>
<path d="M347.493 48.013C347.386 41.2052 344.567 34.7124 339.646 29.9383C334.725 25.1642 328.098 22.4922 321.196 22.5C306.731 22.5 295 34.2519 295 48.7533C295 63.2547 306.731 75 321.196 75C325.747 75.0076 330.22 73.8288 334.161 71.5828V59.5401C332.72 61.5568 330.815 63.2075 328.602 64.3565C326.389 65.5055 323.931 66.1201 321.431 66.1497C312.486 66.1497 305.231 58.4363 305.231 48.9251C305.231 39.414 312.486 31.7006 321.431 31.7006C330.141 31.7006 337.129 38.872 337.45 48.0923V74.5637H347.5L347.493 48.013Z" fill="#868686"/>
</svg>
